<svg width="27" height="27" viewBox="0 0 27 27" fill="none" xmlns="http://www.w3.org/2000/svg">
<path d="M23.625 12.75H21.75V7.75C21.75 6.375 20.625 5.25 19.25 5.25H14.25V3.375C14.25 1.65 12.85 0.25 11.125 0.25C9.4 0.25 8 1.65 8 3.375V5.25H3C1.625 5.25 0.5125 6.375 0.5125 7.75V12.5H2.375C4.2375 12.5 5.75 14.0125 5.75 15.875C5.75 17.7375 4.2375 19.25 2.375 19.25H0.5V24C0.5 25.375 1.625 26.5 3 26.5H7.75V24.625C7.75 22.7625 9.2625 21.25 11.125 21.25C12.9875 21.25 14.5 22.7625 14.5 24.625V26.5H19.25C20.625 26.5 21.75 25.375 21.75 24V19H23.625C25.35 19 26.75 17.6 26.75 15.875C26.75 14.15 25.35 12.75 23.625 12.75Z" fill="#597CC7"/>
</svg>
