<svg width="96" height="38" viewBox="0 0 96 38" fill="none" xmlns="http://www.w3.org/2000/svg">
<path d="M91.4415 24.4887C91.281 24.8453 91.0599 25.1425 90.7761 25.3815C90.4923 25.6203 90.1571 25.8013 89.7706 25.9233C89.384 26.0451 88.9069 26.1058 88.3393 26.1058H85.4011V20.2433H87.8137C88.5561 20.2433 89.1594 20.3121 89.6236 20.45C90.0872 20.5879 90.4687 20.7851 90.7682 21.04C91.0671 21.2949 91.2938 21.611 91.4493 21.9877C91.6033 22.3646 91.6811 22.7922 91.6811 23.2705C91.6811 23.7274 91.6005 24.1335 91.4415 24.4887ZM90.4737 15.5022C90.3603 15.8371 90.1877 16.1296 89.9567 16.3789C89.7242 16.6291 89.4325 16.8252 89.0817 16.9684C88.7315 17.1121 88.2623 17.1837 87.6746 17.1837H85.4011V11.8298H87.4578C88.0868 11.8298 88.5896 11.8881 88.9661 12.0051C89.342 12.1224 89.6543 12.2893 89.9018 12.5068C90.1492 12.7249 90.3347 12.9988 90.4595 13.328C90.5828 13.657 90.6449 14.0289 90.6449 14.4434C90.6449 14.8148 90.5878 15.168 90.4737 15.5022ZM95.5941 21.2308C95.388 20.6681 95.107 20.177 94.7512 19.7571C94.3953 19.3379 93.9774 18.9944 93.4982 18.7292C93.0189 18.464 92.4948 18.2779 91.9278 18.1718C92.3714 18.0016 92.7658 17.7785 93.1116 17.5024C93.4575 17.2263 93.7485 16.9076 93.986 16.5466C94.2227 16.1853 94.4031 15.7842 94.5265 15.3432C94.6513 14.9025 94.7126 14.4325 94.7126 13.933C94.7126 13.0411 94.5579 12.2656 94.2484 11.607C93.9396 10.9485 93.4932 10.4036 92.9105 9.97374C92.3279 9.54336 91.6112 9.22245 90.7604 9.00929C89.9096 8.79706 88.8706 8.69094 87.644 8.69094H82.6163C82.2761 8.69094 81.9902 8.79456 81.7584 9.00151C81.5259 9.20904 81.4097 9.54643 81.4097 10.0135V27.9868C81.4097 28.4541 81.5259 28.7913 81.7584 28.9988C81.9902 29.2055 82.2761 29.3094 82.6163 29.3094H87.9378C88.7422 29.3094 89.471 29.2592 90.1264 29.1576C90.7811 29.0565 91.3972 28.9004 91.9749 28.6882C92.5518 28.4756 93.081 28.2041 93.5602 27.8747C94.0394 27.546 94.4516 27.1524 94.7982 26.6955C95.1427 26.2396 95.4137 25.7136 95.6098 25.1188C95.8059 24.5241 95.9043 23.8597 95.9043 23.1265C95.9043 22.4259 95.8002 21.7941 95.5941 21.2308ZM72.2536 21.3896H66.5759L69.407 12.6266H69.4223L72.2536 21.3896ZM72.4233 9.47176C72.3613 9.27037 72.2857 9.1107 72.1987 8.99374C72.111 8.87729 71.9669 8.78978 71.7658 8.73074C71.5647 8.67283 71.2832 8.63517 70.9224 8.61906C70.5617 8.60344 70.0769 8.59538 69.4688 8.59538C68.9432 8.59538 68.5198 8.60344 68.2 8.61906C67.8805 8.63517 67.6303 8.67283 67.4506 8.73074C67.2695 8.78978 67.1381 8.87393 67.0559 8.98561C66.9728 9.09736 66.9012 9.24306 66.8391 9.42384L60.6668 27.716C60.5434 28.087 60.4663 28.3851 60.4356 28.608C60.4041 28.8308 60.4404 29.0043 60.5434 29.1261C60.6465 29.2481 60.8317 29.3253 61.1005 29.3568C61.3688 29.3888 61.7393 29.4047 62.2143 29.4047C62.6572 29.4047 63.0158 29.3944 63.2896 29.3726C63.5626 29.3517 63.7735 29.3113 63.9233 29.2537C64.0723 29.1952 64.181 29.1149 64.2484 29.0141C64.3152 28.9138 64.3696 28.7885 64.4108 28.64L65.6789 24.609H73.1964L74.5421 28.7514C74.5835 28.8893 74.6348 29.0007 74.6968 29.0857C74.7589 29.1706 74.8673 29.237 75.0213 29.2849C75.1761 29.3331 75.4007 29.3643 75.6952 29.381C75.9891 29.3963 76.3984 29.4047 76.924 29.4047C77.4296 29.4047 77.8261 29.3907 78.1156 29.3643C78.4038 29.3387 78.6056 29.269 78.719 29.1576C78.8316 29.0461 78.873 28.879 78.8423 28.6553C78.8117 28.4333 78.7332 28.1297 78.6106 27.7471L72.4233 9.47176ZM59.7774 26.7513C59.7509 26.534 59.7133 26.3593 59.6625 26.2261C59.6096 26.0933 59.5456 25.9972 59.4676 25.9392C59.391 25.8807 59.3004 25.851 59.1979 25.851H52.9022V9.26424C52.9022 9.15891 52.8682 9.06334 52.8013 8.97784C52.7345 8.8929 52.6236 8.8238 52.469 8.77089C52.3144 8.71768 52.1077 8.67532 51.8501 8.64352C51.5923 8.6115 51.2622 8.59538 50.8603 8.59538C50.4683 8.59538 50.141 8.6115 49.8777 8.64352C49.6151 8.67532 49.4061 8.71768 49.2515 8.77089C49.0969 8.8238 48.9863 8.8929 48.9186 8.97784C48.8518 9.06334 48.8183 9.15891 48.8183 9.26424V27.9868C48.8183 28.4541 48.9348 28.7913 49.1666 28.9988C49.3986 29.2055 49.6847 29.3094 50.0254 29.3094H59.1979C59.3004 29.3094 59.391 29.2773 59.4676 29.2133C59.5456 29.1498 59.6096 29.0461 59.6625 28.9026C59.7133 28.7592 59.7509 28.5787 59.7774 28.3609C59.8024 28.1436 59.8164 27.8747 59.8164 27.5564C59.8164 27.2374 59.8024 26.9694 59.7774 26.7513ZM46.0187 10.2843C46.1423 9.91241 46.2221 9.61496 46.2585 9.3921C46.2945 9.16896 46.2636 8.99652 46.1657 8.87393C46.0675 8.7522 45.8875 8.67532 45.6242 8.64352C45.3612 8.6115 44.9924 8.59538 44.5186 8.59538C44.0336 8.59538 43.6519 8.60594 43.3736 8.62712C43.0956 8.64915 42.8811 8.69094 42.7315 8.75441C42.5822 8.81824 42.4766 8.90567 42.4148 9.0177C42.3527 9.12881 42.3011 9.27508 42.2602 9.45586L37.4802 25.2776H37.4649L32.5923 9.37649C32.5408 9.21688 32.4868 9.08395 32.4299 8.97784C32.3731 8.87222 32.2725 8.792 32.1283 8.73879C31.9839 8.68588 31.7778 8.64915 31.5098 8.62712C31.2416 8.60594 30.8699 8.59538 30.3961 8.59538C29.8389 8.59538 29.4058 8.609 29.0966 8.63518C28.7873 8.6622 28.5681 8.73073 28.4394 8.84191C28.3099 8.95416 28.2589 9.12161 28.2845 9.34447C28.3099 9.56754 28.3851 9.86984 28.5088 10.2523L34.4641 28.528C34.505 28.6665 34.549 28.7807 34.5955 28.8712C34.6418 28.9612 34.7089 29.0378 34.7964 29.1018C34.8841 29.1651 34.9925 29.2189 35.1212 29.2612C35.2502 29.3038 35.4177 29.335 35.624 29.3568C35.8305 29.3777 36.0804 29.3907 36.3745 29.3963C36.6681 29.4018 37.0217 29.4047 37.4339 29.4047C37.9496 29.4047 38.3671 29.3963 38.6869 29.381C39.0065 29.3643 39.2591 29.3275 39.4446 29.269C39.6305 29.2111 39.7642 29.1261 39.8469 29.0141C39.9291 28.9026 39.9965 28.7565 40.048 28.5759L46.0187 10.2843ZM25.7245 10.3643C25.7245 10.0988 25.691 9.86171 25.6239 9.65504C25.5564 9.44752 25.4587 9.27287 25.3302 9.12881C25.201 8.98561 25.0361 8.87729 24.835 8.80262C24.6341 8.72853 24.3942 8.69094 24.116 8.69094H21.3781C20.9965 8.69094 20.6614 8.73074 20.3725 8.81011C20.0836 8.89034 19.8337 9.02576 19.6226 9.21688C19.4109 9.40822 19.2254 9.65754 19.0655 9.96568C18.9053 10.274 18.7588 10.6509 18.6248 11.0972L14.1389 23.3499H14.0771L9.74582 11.0651C9.62245 10.6192 9.47754 10.2442 9.31266 9.94194C9.14771 9.63864 8.94161 9.39517 8.69394 9.20904C8.44683 9.02327 8.15266 8.89034 7.81256 8.81011C7.47211 8.73074 7.06458 8.69094 6.59046 8.69094H3.93009C3.46599 8.69094 3.09465 8.83464 2.81636 9.12161C2.53779 9.40822 2.3985 9.82249 2.3985 10.3643V28.7356C2.3985 28.8414 2.42692 28.9375 2.48347 29.0225C2.5403 29.1075 2.64337 29.1762 2.79324 29.2292C2.94255 29.283 3.1409 29.3253 3.38855 29.3568C3.6362 29.3888 3.94541 29.4047 4.31647 29.4047C4.69784 29.4047 5.01011 29.3888 5.25247 29.3568C5.49455 29.3253 5.69345 29.283 5.84806 29.2292C6.00267 29.1762 6.10824 29.1075 6.16479 29.0225C6.22162 28.9375 6.25031 28.8414 6.25031 28.7356V11.9574H6.28124L11.8806 28.7194C11.9114 28.8364 11.9735 28.9375 12.066 29.0225C12.1591 29.1075 12.2855 29.179 12.4452 29.237C12.6051 29.296 12.8087 29.3387 13.0564 29.3643C13.3038 29.3907 13.6027 29.4047 13.9531 29.4047C14.3035 29.4047 14.6033 29.3963 14.8504 29.381C15.098 29.3643 15.3014 29.3303 15.4616 29.2773C15.6209 29.2244 15.7476 29.152 15.8404 29.062C15.9335 28.9723 16 28.8581 16.0415 28.7194L21.8422 11.9574H21.8729V28.7356C21.8729 28.8414 21.9039 28.9375 21.966 29.0225C22.0275 29.1075 22.1306 29.1762 22.2752 29.2292C22.4195 29.283 22.6153 29.3253 22.863 29.3568C23.1104 29.3888 23.4198 29.4047 23.7908 29.4047C24.1725 29.4047 24.4873 29.3888 24.7344 29.3568C24.9821 29.3253 25.1807 29.283 25.3302 29.2292C25.4796 29.1762 25.5826 29.1075 25.6395 29.0225C25.696 28.9375 25.7245 28.8414 25.7245 28.7356V10.3643ZM47.2065 38H0V0H47.2065V38Z" fill="#597CC7"/>
</svg>
