<svg width="30" height="30" viewBox="0 0 30 30" fill="none" xmlns="http://www.w3.org/2000/svg">
<path fill-rule="evenodd" clip-rule="evenodd" d="M26.569 15C26.569 15.51 26.5228 15.99 26.4611 16.47L29.7148 18.945C30.0078 19.17 30.0849 19.575 29.8999 19.905L26.8157 25.095C26.6307 25.425 26.2298 25.56 25.8751 25.425L22.0353 23.925C21.2334 24.51 20.3698 25.02 19.4292 25.395L18.8432 29.37C18.7969 29.73 18.4731 30 18.0876 30H11.9192C11.5337 30 11.2099 29.73 11.1636 29.37L10.5776 25.395C9.63696 25.02 8.77341 24.525 7.97153 23.925L4.13174 25.425C3.79248 25.545 3.37613 25.425 3.19107 25.095L0.106918 19.905C-0.078141 19.575 -0.00103834 19.17 0.291961 18.945L3.54575 16.47C3.48407 15.99 3.4378 15.495 3.4378 15C3.4378 14.505 3.48407 14.01 3.54575 13.53L0.291961 11.055C-0.00103834 10.83 -0.0935524 10.425 0.106918 10.095L3.19107 4.905C3.37613 4.575 3.77707 4.44 4.13174 4.575L7.97153 6.075C8.77341 5.49 9.63696 4.98 10.5776 4.605L11.1636 0.63C11.2099 0.27 11.5337 0 11.9192 0H18.0876C18.4731 0 18.7969 0.27 18.8432 0.63L19.4292 4.605C20.3698 4.98 21.2334 5.475 22.0353 6.075L25.8751 4.575C26.2143 4.455 26.6307 4.575 26.8157 4.905L29.8999 10.095C30.0849 10.425 30.0078 10.83 29.7148 11.055L26.4611 13.53C26.5228 14.01 26.569 14.49 26.569 15ZM9.60583 15C9.60583 17.895 12.0269 20.25 15.0031 20.25C17.9793 20.25 20.4004 17.895 20.4004 15C20.4004 12.105 17.9793 9.75 15.0031 9.75C12.0269 9.75 9.60583 12.105 9.60583 15Z" fill="#597CC7"/>
</svg>
